<?xml version="1.0" standalone="no"?>
<!DOCTYPE svg PUBLIC "-//W3C//DTD SVG 20010904//EN"
 "http://www.w3.org/TR/2001/REC-SVG-20010904/DTD/svg10.dtd">
<svg version="1.0" xmlns="http://www.w3.org/2000/svg"
 width="2500.000000pt" height="500.000000pt" viewBox="0 0 2500.000000 500.000000"
 preserveAspectRatio="xMidYMid meet">

<g transform="translate(0.000000,500.000000) scale(0.100000,-0.100000)"
fill="#000000" stroke="none">
<path d="M1500 4075 l0 -375 1998 2 1997 3 73 23 c313 97 551 388 552 675 l0
47 -2310 0 -2310 0 0 -375z"/>
<path d="M6890 4416 c0 -52 26 -174 50 -238 66 -178 246 -356 428 -425 132
-50 170 -52 835 -53 l617 0 0 -1505 0 -1505 385 0 385 0 0 1505 0 1504 648 3
c637 4 648 4 720 26 312 95 551 388 552 675 l0 47 -2310 0 -2310 0 0 -34z"/>
<path d="M12290 4416 c0 -52 26 -174 50 -238 49 -131 188 -294 315 -370 80
-48 184 -84 281 -98 57 -8 540 -10 1714 -8 l1635 3 73 23 c313 96 551 388 552
675 l0 47 -2310 0 -2310 0 0 -34z"/>
<path d="M17845 4292 c88 -86 260 -256 383 -376 l222 -219 0 -1504 0 -1503
385 0 385 0 2 1127 3 1127 578 -564 577 -564 0 -563 0 -563 385 0 385 0 1 568
0 567 572 557 572 557 3 -1124 2 -1125 385 0 385 0 0 1503 0 1503 148 145 c81
79 254 249 384 377 l238 232 -578 0 -577 0 -580 -567 c-319 -311 -751 -734
-961 -939 l-381 -373 -962 939 -963 940 -576 0 -577 0 160 -158z"/>
<path d="M1500 2161 c0 -841 1 -864 50 -993 49 -131 188 -294 315 -370 80 -48
184 -84 281 -98 57 -8 540 -10 1714 -8 l1635 3 73 23 c313 96 551 388 552 674
l0 48 -1777 2 -1778 3 -57 23 c-116 47 -192 131 -223 247 -13 50 -15 148 -15
647 l0 588 -385 0 -385 0 0 -789z"/>
<path d="M12290 1820 l0 -1130 2310 0 2310 0 0 1130 0 1130 -385 0 -385 0 0
-755 0 -755 -1540 0 -1540 0 0 755 0 755 -385 0 -385 0 0 -1130z"/>
</g>
</svg>
